HIERARCHY
ROOT hip
{
  OFFSET 0 0 0
  CHANNELS 6 Xposition Yposition Zposition Zrotation Yrotation Xrotation
  JOINT abdomen
  {
    OFFSET 0 20.6881 -0.73152
    CHANNELS 3 Zrotation Xrotation Yrotation
    JOINT chest
    {
      OFFSET 0 11.7043 -0.48768
      CHANNELS 3 Zrotation Xrotation Yrotation
      JOINT neck
      {
        OFFSET 0 22.1894 -2.19456
        CHANNELS 3 Zrotation Xrotation Yrotation
        JOINT head
        {
          OFFSET -0.24384 7.07133 1.2192
          CHANNELS 3 Zrotation Xrotation Yrotation
          JOINT leftEye
          {
            OFFSET 4.14528 8.04674 8.04672
            CHANNELS 3 Zrotation Xrotation Yrotation
            End Site
            {
              OFFSET 1 0 0
            }
          }
          JOINT rightEye
          {
            OFFSET -3.6576 8.04674 8.04672
            CHANNELS 3 Zrotation Xrotation Yrotation
            End Site
            {
              OFFSET 1 0 0
            }
          }
        }
      }
      JOINT rCollar
      {
        OFFSET -2.68224 19.2634 -4.8768
        CHANNELS 3 Zrotation Xrotation Yrotation
        JOINT rShldr
        {
          OFFSET -8.77824 -1.95073 1.46304
          CHANNELS 3 Zrotation Xrotation Yrotation
          JOINT rForeArm
          {
            OFFSET -28.1742 -1.7115 0.48768
            CHANNELS 3 Zrotation Xrotation Yrotation
            JOINT rHand
            {
              OFFSET -22.5879 0.773209 7.07136
              CHANNELS 3 Zrotation Xrotation Yrotation
              JOINT rThumb1
              {
                OFFSET -1.2192 -0.487915 3.41376
                CHANNELS 3 Zrotation Xrotation Yrotation
                JOINT rThumb2
                {
                  OFFSET -3.37035 -0.52449 3.41376
                  CHANNELS 3 Zrotation Xrotation Yrotation
                  End Site
                  {
                    OFFSET -1.78271 -1.18214 1.43049
                  }
                }
              }
              JOINT rIndex1
              {
                OFFSET -7.75947 0.938293 5.60832
                CHANNELS 3 Zrotation Xrotation Yrotation
                JOINT rIndex2
                {
                  OFFSET -2.54057 -0.884171 1.56538
                  CHANNELS 3 Zrotation Xrotation Yrotation
                  End Site
                  {
                    OFFSET -1.62519 -0.234802 1.16502
                  }
                }
              }
              JOINT rMid1
              {
                OFFSET -8.24714 1.18213 3.41376
                CHANNELS 3 Zrotation Xrotation Yrotation
                JOINT rMid2
                {
                  OFFSET -3.10165 -0.590103 1.0647
                  CHANNELS 3 Zrotation Xrotation Yrotation
                  End Site
                  {
                    OFFSET -2.48547 -0.328903 0.83742
                  }
                }
              }
              JOINT rRing1
              {
                OFFSET -8.82822 0.546677 1.51678
                CHANNELS 3 Zrotation Xrotation Yrotation
                JOINT rRing2
                {
                  OFFSET -2.60934 -0.819778 -0.0198488
                  CHANNELS 3 Zrotation Xrotation Yrotation
                  End Site
                  {
                    OFFSET -2.33842 -0.294052 0.168128
                  }
                }
              }
              JOINT rPinky1
              {
                OFFSET -8.27202 -0.0477905 -0.4584
                CHANNELS 3 Zrotation Xrotation Yrotation
                JOINT rPinky2
                {
                  OFFSET -1.82734 -0.647385 -0.700984
                  CHANNELS 3 Zrotation Xrotation Yrotation
                  End Site
                  {
                    OFFSET -1.69225 -0.51767 -0.607171
                  }
                }
              }
            }
          }
        }
      }
      JOINT lCollar
      {
        OFFSET 2.68224 19.2634 -4.8768
        CHANNELS 3 Zrotation Xrotation Yrotation
        JOINT lShldr
        {
          OFFSET 8.77824 -1.95073 1.46304
          CHANNELS 3 Zrotation Xrotation Yrotation
          JOINT lForeArm
          {
            OFFSET 28.1742 -1.7115 0.48768
            CHANNELS 3 Zrotation Xrotation Yrotation
            JOINT lHand
            {
              OFFSET 22.5879 0.773209 7.07136
              CHANNELS 3 Zrotation Xrotation Yrotation
              JOINT lThumb1
              {
                OFFSET 1.2192 -0.487915 3.41376
                CHANNELS 3 Zrotation Xrotation Yrotation
                JOINT lThumb2
                {
                  OFFSET 3.37035 -0.52449 3.41376
                  CHANNELS 3 Zrotation Xrotation Yrotation
                  End Site
                  {
                    OFFSET 1.78271 -1.18214 1.43049
                  }
                }
              }
              JOINT lIndex1
              {
                OFFSET 7.75947 0.938293 5.60832
                CHANNELS 3 Zrotation Xrotation Yrotation
                JOINT lIndex2
                {
                  OFFSET 2.54057 -0.884171 1.56538
                  CHANNELS 3 Zrotation Xrotation Yrotation
                  End Site
                  {
                    OFFSET 1.62519 -0.234802 1.16502
                  }
                }
              }
              JOINT lMid1
              {
                OFFSET 8.24714 1.18213 3.41376
                CHANNELS 3 Zrotation Xrotation Yrotation
                JOINT lMid2
                {
                  OFFSET 3.10165 -0.590103 1.0647
                  CHANNELS 3 Zrotation Xrotation Yrotation
                  End Site
                  {
                    OFFSET 2.48547 -0.328903 0.83742
                  }
                }
              }
              JOINT lRing1
              {
                OFFSET 8.82822 0.546677 1.51678
                CHANNELS 3 Zrotation Xrotation Yrotation
                JOINT lRing2
                {
                  OFFSET 2.60934 -0.819778 -0.0198488
                  CHANNELS 3 Zrotation Xrotation Yrotation
                  End Site
                  {
                    OFFSET 2.33842 -0.294052 0.168128
                  }
                }
              }
              JOINT lPinky1
              {
                OFFSET 8.27202 -0.0477905 -0.4584
                CHANNELS 3 Zrotation Xrotation Yrotation
                JOINT lPinky2
                {
                  OFFSET 1.82734 -0.647385 -0.700984
                  CHANNELS 3 Zrotation Xrotation Yrotation
                  End Site
                  {
                    OFFSET 1.69225 -0.51767 -0.607171
                  }
                }
              }
            }
          }
        }
      }
    }
  }
  JOINT rButtock
  {
    OFFSET -8.77824 4.35084 1.2192
    CHANNELS 3 Zrotation Xrotation Yrotation
    JOINT rThigh
    {
      OFFSET 0 -1.70687 -2.19456
      CHANNELS 3 Zrotation Xrotation Yrotation
      JOINT rShin
      {
        OFFSET 0 -36.8199 0.73152
        CHANNELS 3 Zrotation Xrotation Yrotation
        JOINT rFoot
        {
          OFFSET 0.73152 -45.1104 -5.12064
          CHANNELS 3 Zrotation Xrotation Yrotation
          End Site
          {
            OFFSET -1.1221 -3.69964 12.103
          }
        }
      }
    }
  }
  JOINT lButtock
  {
    OFFSET 8.77824 4.35084 1.2192
    CHANNELS 3 Zrotation Xrotation Yrotation
    JOINT lThigh
    {
      OFFSET 0 -1.70687 -2.19456
      CHANNELS 3 Zrotation Xrotation Yrotation
      JOINT lShin
      {
        OFFSET 0 -36.8199 0.73152
        CHANNELS 3 Zrotation Xrotation Yrotation
        JOINT lFoot
        {
          OFFSET -0.73152 -45.1104 -5.12064
          CHANNELS 3 Zrotation Xrotation Yrotation
          End Site
          {
            OFFSET 1.1221 -3.69964 12.103
          }
        }
      }
    }
  }
}
MOTION
Frames:	4
Frame Time:	0.03333
0.3481000085487684 58.21450142815157 -9.231000026277052 -8.584500312805176 -26.213300704956055 5.6442999839782715 -0.12267099320888519 14.372298240661621 10.717299461364746 0.09895189851522446 -8.594820022583008 2.7034502029418945 -2.5810303688049316 13.924599647521973 0.6616439819335938 6.483340263366699 -25.109399795532227 2.843020439147949 -0.0 0.0 -0.0 -0.0 0.0 -0.0 9.904339989211947e-14 1.9878699109975723e-13 -5.788109791807217e-13 67.48989868164062 38.326499938964844 -4.4051289558410645 -22.15220069885254 -15.987698554992676 44.20299530029297 -0.22847995162010193 13.488600730895996 1.931879997253418 -1.4259000646887898e-09 9.604289585851689e-10 1.885359868225578e-09 -2.4424700040270864e-09 1.6260999213812966e-09 3.2663001192645424e-09 -1.4258799696520441e-09 9.604319561873353e-10 1.8853398842111346e-09 7.730909824371338 5.474879741668701 0.4173140823841095 -1.4259000646887898e-09 9.604279593844467e-10 1.885359868225578e-09 2.9055399894714355 0.9651829600334167 0.10290199518203735 -1.4258899616592657e-09 9.604289585851689e-10 1.885359868225578e-09 10.27859878540039 0.73180091381073 0.025912316516041756 -1.4259000646887898e-09 9.604309569866132e-10 1.8853700822774044e-09 2.221669912338257 -0.733487069606781 -0.208919957280159 9.89525979601738e-14 1.9878199021723664e-13 -5.790600204197416e-13 -69.84449768066406 20.29330062866211 -7.332409858703613 11.716398239135742 -5.251730442047119 -21.062299728393555 0.1553010195493698 11.162498474121094 -1.5891400575637817 1.9928199090912813e-09 1.67823988039828e-09 6.673029906423267e-10 3.4472298349186303e-09 2.8836097953899298e-09 1.1301699576193869e-09 1.9928199090912813e-09 1.678229999413361e-09 6.673089858466597e-10 -7.730909824371338 5.474879741668701 -0.4173140823841095 1.992829901098503e-09 1.6782200074061393e-09 6.673029906423267e-10 -2.9055399894714355 0.9651829600334167 -0.10290199518203735 1.9928199090912813e-09 1.6782200074061393e-09 6.673019914416045e-10 -10.27859878540039 0.73180091381073 -0.025912316516041756 1.992829901098503e-09 1.6782200074061393e-09 6.672959962372715e-10 -2.221669912338257 -0.733487069606781 0.208919957280159 -2.0321699480147914e-16 0.0 -3.8825099822884138e-19 -7.663390636444092 -18.369802474975586 3.786309242248535 -2.7375996112823486 75.28260803222656 4.084408760070801 -3.43858003616333 -22.492399215698242 -8.424869537353516 2.0321699480147914e-16 0.0 3.8825099822884138e-19 36.31690216064453 -63.12430953979492 24.328596115112305 1.3905500173568726 62.105098724365234 -1.0598100423812866 -1.2294801473617554 8.488710403442383 3.0824499130249023
0.02630002139355466 58.41239932916352 -10.668000003939744 -8.38129997253418 -25.960599899291992 4.949299335479736 -0.5483750104904175 14.838401794433594 10.957999229431152 -0.005506619811058044 -8.534520149230957 2.7532894611358643 -2.8254098892211914 14.29050064086914 0.6380249261856079 6.719259262084961 -25.151397705078125 2.839439868927002 -0.0 0.0 -0.0 -0.0 0.0 -0.0 -1.1214300159063245e-13 -5.665219609076767e-14 -5.448069838147329e-13 67.16019439697266 38.79509735107422 -4.059549808502197 -22.5846004486084 -16.661500930786133 45.396400451660156 -0.21891796588897705 13.208398818969727 1.8902804851531982 3.4663999448625304e-10 -1.3845500301812308e-09 1.3306700186177522e-09 6.140160047074517e-10 -2.4057398295695975e-09 2.294779921641066e-09 3.466489872927525e-10 -1.3845500301812308e-09 1.3306499235810065e-09 7.730909824371338 5.474879741668701 0.4173140823841095 3.4663999448625304e-10 -1.3845500301812308e-09 1.3306700186177522e-09 2.9055399894714355 0.9651829600334167 0.10290199518203735 3.466440190447173e-10 -1.3845500301812308e-09 1.3306798996026714e-09 10.27859878540039 0.73180091381073 0.025912316516041756 3.466379683292331e-10 -1.3845500301812308e-09 1.3306798996026714e-09 2.221669912338257 -0.733487069606781 -0.208919957280159 -1.1214599669913394e-13 -5.665489643180352e-14 -5.449929786974228e-13 -70.70349884033203 20.297500610351562 -5.658100128173828 12.409500122070312 -5.742720127105713 -22.401199340820312 0.0747705027461052 7.9545793533325195 -1.124650001525879 1.5870400549289343e-09 8.658049832632742e-10 -1.787959919008486e-10 2.7384099432481435e-09 1.4779298895817305e-09 -3.2691799267681176e-10 1.5870300629217127e-09 8.658020411722589e-10 -1.7879300817646993e-10 -7.730909824371338 5.474879741668701 -0.4173140823841095 1.5870400549289343e-09 8.657959349456235e-10 -1.7880000258152506e-10 -2.9055399894714355 0.9651829600334167 -0.10290199518203735 1.5870300629217127e-09 8.657949357449013e-10 -1.7879500657791425e-10 -10.27859878540039 0.73180091381073 -0.025912316516041756 1.5870499359138535e-09 8.657939365441791e-10 -1.787989895030151e-10 -2.221669912338257 -0.733487069606781 0.208919957280159 -2.0321699480147914e-16 0.0 -3.8825099822884138e-19 -5.5216803550720215 -19.92490005493164 6.472540378570557 -3.168809652328491 76.59513092041016 4.378920078277588 -3.2173502445220947 -22.806201934814453 -7.714040279388428 2.0321699480147914e-16 0.0 3.8825099822884138e-19 32.8218994140625 -62.50810241699219 19.37419891357422 1.214590072631836 59.779396057128906 -0.890960156917572 -1.519070029258728 10.428901672363281 3.836120128631592
-0.27009998634226257 58.688700971658044 -12.219000000996473 -7.973299503326416 -25.64630126953125 4.043900012969971 -1.005910038948059 15.354599952697754 11.184401512145996 -0.08358930051326752 -8.388020515441895 2.8034698963165283 -3.0817205905914307 14.689101219177246 0.5777851343154907 6.9878997802734375 -25.292402267456055 2.775749921798706 -0.0 0.0 -0.0 -0.0 0.0 -0.0 -2.6960001613986206e-13 -2.9261098752342285e-13 -2.6070598045831173e-13 66.4634017944336 39.353607177734375 -3.1475698947906494 -22.905000686645508 -17.179397583007812 46.311195373535156 -0.2120639979839325 13.005900382995605 1.860239863395691 1.9063599587809676e-09 -2.9233799825334472e-09 6.173769828698994e-11 3.294799766351275e-09 -5.036549843850935e-09 9.244920107231991e-11 1.9063599587809676e-09 -2.9233799825334472e-09 6.172499317225189e-11 7.730909824371338 5.474879741668701 0.4173140823841095 1.9063599587809676e-09 -2.9233697684816207e-09 6.174089711707964e-11 2.9055399894714355 0.9651829600334167 0.10290199518203735 1.9063599587809676e-09 -2.9233697684816207e-09 6.174730171615295e-11 10.27859878540039 0.73180091381073 0.025912316516041756 1.9063599587809676e-09 -2.9233697684816207e-09 6.17568010619074e-11 2.221669912338257 -0.733487069606781 -0.208919957280159 -2.695210049065422e-13 -2.9261098752342285e-13 -2.6085500404691986e-13 -71.65069580078125 20.64889907836914 -3.7538700103759766 13.208600997924805 -6.333239555358887 -23.974897384643555 0.02611449547111988 4.608110427856445 -0.6490420699119568 2.519949804380417e-10 -8.973080056762228e-10 -1.012280037571145e-09 4.2074796424707017e-10 -1.5647199091972652e-09 -1.7518999584353878e-09 2.5198798603298656e-10 -8.973059517636273e-10 -1.012280037571145e-09 -7.730909824371338 5.474879741668701 -0.4173140823841095 2.519949804380417e-10 -8.97309004876945e-10 -1.0122900295783666e-09 -2.9055399894714355 0.9651829600334167 -0.10290199518203735 2.519850161863957e-10 -8.973100040776671e-10 -1.012280037571145e-09 -10.27859878540039 0.73180091381073 -0.025912316516041756 2.520030017993946e-10 -8.973100040776671e-10 -1.012280037571145e-09 -2.221669912338257 -0.733487069606781 0.208919957280159 -2.0321699480147914e-16 0.0 -3.8825099822884138e-19 -3.1260199546813965 -21.204198837280273 9.152688980102539 -3.5067200660705566 77.40091705322266 4.5764899253845215 -3.163630247116089 -22.996503829956055 -7.409229755401611 2.0321699480147914e-16 0.0 3.8825099822884138e-19 28.80970001220703 -61.536502838134766 13.515098571777344 1.0354400873184204 56.98659896850586 -0.7133229374885559 -1.9246197938919067 12.608000755310059 4.89540958404541
-0.6163999954524443 59.07920337707518 -13.860000013364287 -7.4105000495910645 -25.27069854736328 3.002800226211548 -1.6714602708816528 16.02350425720215 11.420600891113281 -0.21166300773620605 -7.975390911102295 2.8473596572875977 -3.113919496536255 14.902002334594727 0.37541401386260986 6.885570526123047 -25.436098098754883 2.350759744644165 -0.0 0.0 -0.0 -0.0 0.0 -0.0 -1.7556399042883974e-13 -1.9699700041803797e-13 4.051879816911741e-13 65.13299560546875 39.94230270385742 -1.1116515398025513 -23.048097610473633 -17.41520118713379 46.73270034790039 -0.20576001703739166 12.81519889831543 1.8320101499557495 1.8077999097698694e-09 -1.088349965705504e-09 -1.3580798707835129e-09 3.10975978301542e-09 -1.841189867235471e-09 -2.361029816100313e-09 1.8077899177626477e-09 -1.0883399736982824e-09 -1.3580898627907345e-09 7.730909824371338 5.474879741668701 0.4173140823841095 1.8077999097698694e-09 -1.0883399736982824e-09 -1.3580798707835129e-09 2.9055399894714355 0.9651829600334167 0.10290199518203735 1.8077999097698694e-09 -1.088349965705504e-09 -1.3580798707835129e-09 10.27859878540039 0.73180091381073 0.025912316516041756 1.8077899177626477e-09 -1.088349965705504e-09 -1.3580699897985937e-09 2.221669912338257 -0.733487069606781 -0.208919957280159 -1.7554498978576694e-13 -1.9699399175700932e-13 4.0496498840934814e-13 -72.48149871826172 21.314199447631836 -1.980239987373352 14.000100135803223 -6.9552001953125 -25.553298950195312 -0.0007973319152370095 1.3775100708007812 -0.1938830018043518 -1.1719999415404914e-09 -2.342559923818044e-09 1.0450998955136015e-09 -2.036280033479443e-09 -4.060059843880026e-09 1.813060035438241e-09 -1.1719999415404914e-09 -2.3425499318108223e-09 1.0451099985431256e-09 -7.730909824371338 5.474879741668701 -0.4173140823841095 -1.1719899495332697e-09 -2.342559923818044e-09 1.0450998955136015e-09 -2.9055399894714355 0.9651829600334167 -0.10290199518203735 -1.1719999415404914e-09 -2.342559923818044e-09 1.0450998955136015e-09 -10.27859878540039 0.73180091381073 -0.025912316516041756 -1.1719899495332697e-09 -2.342559923818044e-09 1.0450998955136015e-09 -2.221669912338257 -0.733487069606781 0.208919957280159 -2.0321699480147914e-16 0.0 -3.8825099822884138e-19 -0.7864800095558167 -22.15130043029785 11.69729995727539 -3.645569324493408 77.58269500732422 4.568639755249023 -3.2808196544647217 -23.218297958374023 -7.4811296463012695 2.0321699480147914e-16 0.0 3.8825099822884138e-19 23.949800491333008 -59.86800003051758 6.34508752822876 0.8594579100608826 53.59920883178711 -0.5181480646133423 -2.7586798667907715 15.626498222351074 7.217670917510986
